<mxfile host="app.diagrams.net" modified="2024-01-13T11:54:21.756Z" agent="Mozilla/5.0 (Windows NT 10.0; Win64; x64) AppleWebKit/537.36 (KHTML, like Gecko) Chrome/120.0.0.0 Safari/537.36" etag="9WblE7vIjryb7A1DArvr" version="22.1.18" type="github">
  <diagram name="페이지-1" id="HAdsagcqMK5C1EckOBzp">
    <mxGraphModel dx="475" dy="455" grid="1" gridSize="10" guides="1" tooltips="1" connect="1" arrows="1" fold="1" page="1" pageScale="1" pageWidth="827" pageHeight="1169" math="0" shadow="0">
      <root>
        <mxCell id="0" />
        <mxCell id="1" parent="0" />
        <mxCell id="9eqFvRkzTiV2USN3E8BD-26" value="&amp;nbsp; &amp;nbsp; &amp;nbsp; &amp;nbsp; &amp;nbsp; &amp;nbsp; &amp;nbsp; &amp;nbsp; &amp;nbsp; &amp;nbsp; &amp;nbsp; &amp;nbsp; &amp;nbsp; &amp;nbsp; &amp;nbsp; &amp;nbsp; &amp;nbsp; &amp;nbsp; &amp;nbsp; &amp;nbsp; &amp;nbsp; &amp;nbsp; &amp;nbsp; &amp;nbsp; &amp;nbsp; &amp;nbsp; &amp;nbsp; &amp;nbsp; &amp;nbsp; &amp;nbsp; &amp;nbsp; &amp;nbsp; 작업 2 결과" style="html=1;verticalAlign=bottom;endArrow=open;dashed=1;endSize=8;curved=0;rounded=0;entryX=1.386;entryY=0.357;entryDx=0;entryDy=0;entryPerimeter=0;" edge="1" parent="1" source="9eqFvRkzTiV2USN3E8BD-23" target="9eqFvRkzTiV2USN3E8BD-25">
          <mxGeometry relative="1" as="geometry">
            <mxPoint x="385" y="323" as="sourcePoint" />
            <mxPoint x="233" y="360" as="targetPoint" />
          </mxGeometry>
        </mxCell>
        <mxCell id="9eqFvRkzTiV2USN3E8BD-10" value="JOB" style="shape=umlLifeline;perimeter=lifelinePerimeter;whiteSpace=wrap;html=1;container=1;dropTarget=0;collapsible=0;recursiveResize=0;outlineConnect=0;portConstraint=eastwest;newEdgeStyle={&quot;edgeStyle&quot;:&quot;elbowEdgeStyle&quot;,&quot;elbow&quot;:&quot;vertical&quot;,&quot;curved&quot;:0,&quot;rounded&quot;:0};" vertex="1" parent="1">
          <mxGeometry x="170" y="50" width="100" height="300" as="geometry" />
        </mxCell>
        <mxCell id="9eqFvRkzTiV2USN3E8BD-11" value="JOB_01" style="shape=umlLifeline;perimeter=lifelinePerimeter;whiteSpace=wrap;html=1;container=1;dropTarget=0;collapsible=0;recursiveResize=0;outlineConnect=0;portConstraint=eastwest;newEdgeStyle={&quot;edgeStyle&quot;:&quot;elbowEdgeStyle&quot;,&quot;elbow&quot;:&quot;vertical&quot;,&quot;curved&quot;:0,&quot;rounded&quot;:0};" vertex="1" parent="1">
          <mxGeometry x="330" y="50" width="100" height="300" as="geometry" />
        </mxCell>
        <mxCell id="9eqFvRkzTiV2USN3E8BD-12" value="" style="html=1;points=[];perimeter=orthogonalPerimeter;fillColor=strokeColor;align=left;verticalAlign=top;spacingLeft=10;" vertex="1" parent="1">
          <mxGeometry x="217.5" y="110" width="5" height="160" as="geometry" />
        </mxCell>
        <mxCell id="9eqFvRkzTiV2USN3E8BD-13" value="작업 1&amp;nbsp;" style="html=1;verticalAlign=bottom;labelBackgroundColor=none;endArrow=block;endFill=1;endSize=6;align=left;rounded=0;" edge="1" parent="1">
          <mxGeometry x="-1" relative="1" as="geometry">
            <mxPoint x="222.5" y="119.71" as="sourcePoint" />
            <mxPoint x="382.5" y="119.71" as="targetPoint" />
          </mxGeometry>
        </mxCell>
        <mxCell id="9eqFvRkzTiV2USN3E8BD-14" value="" style="html=1;points=[];perimeter=orthogonalPerimeter;fillColor=strokeColor;align=left;verticalAlign=top;spacingLeft=10;" vertex="1" parent="1">
          <mxGeometry x="377.5" y="110" width="5" height="50" as="geometry" />
        </mxCell>
        <mxCell id="9eqFvRkzTiV2USN3E8BD-15" value="" style="html=1;points=[];perimeter=orthogonalPerimeter;fillColor=strokeColor;align=left;verticalAlign=top;spacingLeft=10;" vertex="1" parent="1">
          <mxGeometry x="377.5" y="179" width="5" height="181" as="geometry" />
        </mxCell>
        <mxCell id="9eqFvRkzTiV2USN3E8BD-16" value="&amp;nbsp;작업 2" style="html=1;verticalAlign=bottom;labelBackgroundColor=none;endArrow=block;endFill=1;endSize=6;align=left;rounded=0;" edge="1" parent="1" source="9eqFvRkzTiV2USN3E8BD-10">
          <mxGeometry x="-1" relative="1" as="geometry">
            <mxPoint x="230" y="190" as="sourcePoint" />
            <mxPoint x="377.5" y="188.99999999999997" as="targetPoint" />
          </mxGeometry>
        </mxCell>
        <mxCell id="9eqFvRkzTiV2USN3E8BD-17" value="작업1 응답" style="html=1;verticalAlign=bottom;labelBackgroundColor=none;endArrow=open;endFill=0;dashed=1;rounded=0;exitX=-0.329;exitY=0.693;exitDx=0;exitDy=0;exitPerimeter=0;" edge="1" parent="1">
          <mxGeometry width="160" relative="1" as="geometry">
            <mxPoint x="377.495" y="150.00000000000003" as="sourcePoint" />
            <mxPoint x="221.56857142857132" y="150.00000000000003" as="targetPoint" />
          </mxGeometry>
        </mxCell>
        <mxCell id="9eqFvRkzTiV2USN3E8BD-18" value="&amp;nbsp; &amp;nbsp; &amp;nbsp; &amp;nbsp; &amp;nbsp; &amp;nbsp; &amp;nbsp; &amp;nbsp; &amp;nbsp; &amp;nbsp; &amp;nbsp; &amp;nbsp; &amp;nbsp;작업 3 결과&amp;nbsp;" style="html=1;verticalAlign=bottom;endArrow=open;dashed=1;endSize=8;curved=0;rounded=0;entryX=1.157;entryY=0.243;entryDx=0;entryDy=0;entryPerimeter=0;" edge="1" parent="1" source="9eqFvRkzTiV2USN3E8BD-15" target="9eqFvRkzTiV2USN3E8BD-21">
          <mxGeometry relative="1" as="geometry">
            <mxPoint x="589.5" y="260" as="sourcePoint" />
            <mxPoint x="450" y="260" as="targetPoint" />
          </mxGeometry>
        </mxCell>
        <mxCell id="9eqFvRkzTiV2USN3E8BD-21" value="" style="html=1;points=[];perimeter=orthogonalPerimeter;fillColor=strokeColor;align=left;verticalAlign=top;spacingLeft=10;" vertex="1" parent="1">
          <mxGeometry x="217.5" y="340" width="5" height="40" as="geometry" />
        </mxCell>
        <mxCell id="9eqFvRkzTiV2USN3E8BD-22" value="" style="html=1;points=[];perimeter=orthogonalPerimeter;fillColor=strokeColor;align=left;verticalAlign=top;spacingLeft=10;" vertex="1" parent="1">
          <mxGeometry x="497.5" y="238" width="5" height="62" as="geometry" />
        </mxCell>
        <mxCell id="9eqFvRkzTiV2USN3E8BD-23" value="JOB_02" style="shape=umlLifeline;perimeter=lifelinePerimeter;whiteSpace=wrap;html=1;container=1;dropTarget=0;collapsible=0;recursiveResize=0;outlineConnect=0;portConstraint=eastwest;newEdgeStyle={&quot;edgeStyle&quot;:&quot;elbowEdgeStyle&quot;,&quot;elbow&quot;:&quot;vertical&quot;,&quot;curved&quot;:0,&quot;rounded&quot;:0};" vertex="1" parent="1">
          <mxGeometry x="450" y="49" width="100" height="300" as="geometry" />
        </mxCell>
        <mxCell id="9eqFvRkzTiV2USN3E8BD-24" value="&amp;nbsp;작업 3" style="html=1;verticalAlign=bottom;labelBackgroundColor=none;endArrow=block;endFill=1;endSize=6;align=left;rounded=0;exitX=0.243;exitY=0.888;exitDx=0;exitDy=0;exitPerimeter=0;" edge="1" parent="1" source="9eqFvRkzTiV2USN3E8BD-12" target="9eqFvRkzTiV2USN3E8BD-23">
          <mxGeometry x="-1" relative="1" as="geometry">
            <mxPoint x="225" y="219.21" as="sourcePoint" />
            <mxPoint x="382.5" y="219.20999999999998" as="targetPoint" />
          </mxGeometry>
        </mxCell>
        <mxCell id="9eqFvRkzTiV2USN3E8BD-25" value="" style="html=1;points=[];perimeter=orthogonalPerimeter;fillColor=strokeColor;align=left;verticalAlign=top;spacingLeft=10;" vertex="1" parent="1">
          <mxGeometry x="217.5" y="280" width="5" height="40" as="geometry" />
        </mxCell>
        <mxCell id="9eqFvRkzTiV2USN3E8BD-27" value="동기" style="text;html=1;align=center;verticalAlign=middle;resizable=0;points=[];autosize=1;strokeColor=none;fillColor=none;" vertex="1" parent="1">
          <mxGeometry x="382.5" y="120" width="50" height="30" as="geometry" />
        </mxCell>
        <mxCell id="9eqFvRkzTiV2USN3E8BD-28" value="비동기" style="text;html=1;align=center;verticalAlign=middle;resizable=0;points=[];autosize=1;strokeColor=none;fillColor=none;" vertex="1" parent="1">
          <mxGeometry x="377.5" y="175" width="60" height="30" as="geometry" />
        </mxCell>
        <mxCell id="9eqFvRkzTiV2USN3E8BD-29" value="비동기" style="text;html=1;align=center;verticalAlign=middle;resizable=0;points=[];autosize=1;strokeColor=none;fillColor=none;" vertex="1" parent="1">
          <mxGeometry x="502.5" y="238" width="60" height="30" as="geometry" />
        </mxCell>
      </root>
    </mxGraphModel>
  </diagram>
</mxfile>
